<svg width="640" height="300" viewBox="0 0 640 300" fill="none" xmlns="http://www.w3.org/2000/svg">
  <rect width="640" height="300" rx="20" fill="url(#paint0_linear_148_9)"/>
  <circle cx="544" cy="60" r="84" fill="#93C5FD" opacity="0.18"/>
  <circle cx="88" cy="250" r="96" fill="#BFDBFE" opacity="0.2"/>
  <rect x="32" y="50" width="292" height="194" rx="14" fill="#F8FBFF" stroke="#BFDBFE"/>
  <rect x="56" y="78" width="162" height="12" rx="6" fill="#1D4ED8"/>
  <rect x="56" y="104" width="232" height="9" rx="4.5" fill="#93C5FD"/>
  <rect x="56" y="123" width="206" height="9" rx="4.5" fill="#BFDBFE"/>
  <rect x="56" y="142" width="174" height="9" rx="4.5" fill="#DBEAFE"/>
  <rect x="56" y="180" width="84" height="28" rx="8" fill="#2563EB"/>
  <rect x="150" y="180" width="96" height="28" rx="8" fill="#E0ECFF" stroke="#93C5FD"/>
  <rect x="372" y="76" width="236" height="168" rx="16" fill="white" opacity="0.92"/>
  <rect x="394" y="100" width="90" height="90" rx="45" fill="#DBEAFE"/>
  <circle cx="439" cy="130" r="22" fill="#93C5FD"/>
  <path d="M405 185C410 164 426 154 439 154C452 154 468 164 473 185" stroke="#60A5FA" stroke-width="8" stroke-linecap="round"/>
  <rect x="500" y="108" width="90" height="10" rx="5" fill="#1D4ED8"/>
  <rect x="500" y="127" width="76" height="8" rx="4" fill="#93C5FD"/>
  <rect x="500" y="143" width="66" height="8" rx="4" fill="#BFDBFE"/>
  <rect x="500" y="171" width="84" height="26" rx="8" fill="#EAF2FF" stroke="#93C5FD"/>
  <defs>
    <linearGradient id="paint0_linear_148_9" x1="320" y1="0" x2="320" y2="300" gradientUnits="userSpaceOnUse">
      <stop stop-color="#EFF6FF"/>
      <stop offset="1" stop-color="#DBEAFE"/>
    </linearGradient>
  </defs>
</svg>
