<svg width="80" height="34" viewBox="0 0 80 34" fill="none" xmlns="http://www.w3.org/2000/svg">
  <rect x="0.5" y="0.5" width="79" height="33" rx="7.5" fill="#EFF8FF" stroke="#8CC5E5"/>
  <circle cx="13" cy="17" r="7" fill="#0EA5E9" opacity="0.18"/>
  <path d="M9.2 21V12.8H12.8C13.8 12.8 14.5 13 15 13.4C15.5 13.8 15.7 14.3 15.7 15C15.7 15.8 15.3 16.3 14.6 16.7C15.6 17.1 16.1 17.8 16.1 18.8C16.1 19.5 15.8 20.1 15.3 20.5C14.7 20.8 13.9 21 12.9 21H9.2ZM11.3 16.1H12.6C13.4 16.1 13.8 15.8 13.8 15.2C13.8 14.6 13.4 14.3 12.6 14.3H11.3V16.1ZM11.3 19.5H12.8C13.6 19.5 14 19.2 14 18.5C14 17.8 13.6 17.5 12.8 17.5H11.3V19.5Z" fill="#0369A1"/>
  <path d="M21 21V12.8H27.6V14.7H23.1V16H27V17.9H23.1V19.1H27.7V21H21Z" fill="#0369A1"/>
  <path d="M28.9 19.9L30.2 18.3C31.1 19.1 32.2 19.5 33.4 19.5C34.1 19.5 34.6 19.3 34.6 18.9C34.6 18.5 34.2 18.3 33 18C30.9 17.6 29.5 17 29.5 15.2C29.5 13.6 30.8 12.4 33 12.4C34.5 12.4 35.8 12.9 36.8 13.7L35.6 15.4C34.8 14.8 33.8 14.5 33 14.5C32.3 14.5 32 14.8 32 15.1C32 15.5 32.4 15.7 33.7 16C35.9 16.5 37.1 17.1 37.1 18.8C37.1 20.6 35.7 21.6 33.3 21.6C31.8 21.6 30.2 21.1 28.9 19.9Z" fill="#0369A1"/>
  <path d="M43 21V14.8H40.5V12.8H47.6V14.8H45.1V21H43Z" fill="#0369A1"/>
  <path d="M49.2 21V12.8H55.8V14.7H51.3V16H55.2V17.9H51.3V19.1H55.9V21H49.2Z" fill="#0369A1"/>
  <path d="M57.4 21V12.8H60.6C63.4 12.8 65 14.4 65 16.9C65 19.4 63.4 21 60.6 21H57.4ZM59.5 19.1H60.6C62.1 19.1 62.9 18.2 62.9 16.9C62.9 15.6 62.1 14.7 60.6 14.7H59.5V19.1Z" fill="#0369A1"/>
</svg>
