<svg width="80" height="34" viewBox="0 0 80 34" fill="none" xmlns="http://www.w3.org/2000/svg">
  <rect x="0.5" y="0.5" width="79" height="33" rx="7.5" fill="#EAF2FF" stroke="#93B4F0"/>
  <path d="M8 24V10H12L17 18.4V10H21V24H17L12 15.6V24H8Z" fill="#1D4ED8"/>
  <path d="M25 24V10H36V13.2H29V15.3H35V18.3H29V20.8H36V24H25Z" fill="#1D4ED8"/>
  <path d="M39 24L35 10H39.2L41.4 18.7L43.9 10H47.4L49.9 18.7L52.1 10H56.3L52.3 24H48.7L45.7 14.7L42.6 24H39Z" fill="#1D4ED8"/>
  <path d="M58 22.5L59.9 20.2C61.2 21.3 62.8 22 64.5 22C65.6 22 66.2 21.6 66.2 20.9C66.2 20.2 65.7 19.9 63.9 19.5C61 18.9 59.1 18 59.1 15.2C59.1 12.7 61 10.8 64.2 10.8C66.4 10.8 68.2 11.5 69.7 12.7L68 15.2C66.7 14.3 65.4 13.8 64.1 13.8C63.1 13.8 62.6 14.2 62.6 14.8C62.6 15.5 63.1 15.8 65 16.2C68.1 16.9 69.7 17.9 69.7 20.5C69.7 23.3 67.6 25 64.3 25C62 25 59.7 24.2 58 22.5Z" fill="#1D4ED8"/>
</svg>
